<svg width="114" height="38" viewBox="0 0 114 38" fill="none" xmlns="http://www.w3.org/2000/svg">
<path opacity="0.68" d="M47.76 27C46.6933 27 45.76 26.7067 44.96 26.12C44.1733 25.5333 43.5667 24.7067 43.14 23.64C42.7133 22.56 42.5 21.28 42.5 19.8C42.5 19.2 42.5733 18.5467 42.72 17.84C42.88 17.12 43.1133 16.44 43.42 15.8C43.7267 15.1467 44.1 14.6133 44.54 14.2C44.98 13.7867 45.4867 13.58 46.06 13.58C46.66 13.58 47.1467 13.7933 47.52 14.22C47.9067 14.6467 48.1 15.1733 48.1 15.8C48.1 16.12 48.0133 16.5333 47.84 17.04C47.6667 17.5333 47.4933 18.0667 47.32 18.64C47.1467 19.2 47.06 19.7467 47.06 20.28C47.06 20.9067 47.1533 21.3467 47.34 21.6C47.5267 21.84 47.7333 21.96 47.96 21.96C48.2933 21.96 48.5267 21.7933 48.66 21.46C48.8067 21.1267 48.88 20.4933 48.88 19.56C48.88 19.0667 48.8733 18.54 48.86 17.98C48.86 17.42 48.9067 16.8933 49 16.4C49.1067 15.8933 49.3067 15.48 49.6 15.16C49.9067 14.84 50.36 14.68 50.96 14.68C51.56 14.68 52.0133 14.8333 52.32 15.14C52.64 15.4467 52.8533 15.8467 52.96 16.34C53.0667 16.82 53.12 17.3333 53.12 17.88C53.1333 18.4267 53.14 18.9467 53.14 19.44C53.14 20.44 53.2267 21.14 53.4 21.54C53.5733 21.9267 53.84 22.12 54.2 22.12C54.4667 22.12 54.6733 21.9733 54.82 21.68C54.9667 21.3733 55.0267 20.9067 55 20.28C54.9733 19.7467 54.8733 19.22 54.7 18.7C54.5267 18.1667 54.3533 17.6533 54.18 17.16C54.02 16.6667 53.94 16.2133 53.94 15.8C53.94 15.1467 54.1467 14.62 54.56 14.22C54.9733 13.82 55.4467 13.62 55.98 13.62C56.6067 13.62 57.1467 13.8267 57.6 14.24C58.0533 14.6533 58.4267 15.18 58.72 15.82C59.0133 16.46 59.2267 17.1333 59.36 17.84C59.5067 18.5467 59.58 19.2 59.58 19.8C59.58 21.28 59.3667 22.56 58.94 23.64C58.5133 24.7067 57.9067 25.5333 57.12 26.12C56.3333 26.6933 55.4 26.98 54.32 26.98C53.7467 26.98 53.18 26.8533 52.62 26.6C52.06 26.3333 51.5333 25.9267 51.04 25.38C50.5467 25.9267 50.0133 26.3333 49.44 26.6C48.88 26.8667 48.32 27 47.76 27ZM62.9259 17.3C62.2726 17.3 61.7193 17.0667 61.2659 16.6C60.8126 16.12 60.5859 15.54 60.5859 14.86C60.5859 14.4067 60.6859 14 60.8859 13.64C61.0993 13.28 61.3793 12.9933 61.7259 12.78C62.0859 12.5533 62.4859 12.44 62.9259 12.44C63.3526 12.44 63.7393 12.5533 64.0859 12.78C64.4459 12.9933 64.7326 13.28 64.9459 13.64C65.1593 14 65.2659 14.4067 65.2659 14.86C65.2659 15.3133 65.1593 15.7267 64.9459 16.1C64.7326 16.46 64.4459 16.7533 64.0859 16.98C63.7393 17.1933 63.3526 17.3 62.9259 17.3ZM62.9259 27C62.3926 27 61.9926 26.8467 61.7259 26.54C61.4726 26.2333 61.2993 25.7667 61.2059 25.14C61.1259 24.5 61.0793 23.68 61.0659 22.68C61.0659 21.68 61.1059 20.86 61.1859 20.22C61.2793 19.58 61.4593 19.1133 61.7259 18.82C61.9926 18.5133 62.3926 18.36 62.9259 18.36C63.4593 18.36 63.8526 18.5133 64.1059 18.82C64.3726 19.1133 64.5526 19.58 64.6459 20.22C64.7393 20.86 64.7859 21.68 64.7859 22.68C64.7993 23.68 64.7593 24.5 64.6659 25.14C64.5726 25.7667 64.3926 26.2333 64.1259 26.54C63.8593 26.8467 63.4593 27 62.9259 27ZM68.6495 26.96C67.7562 26.96 67.1362 26.4133 66.7895 25.32C66.4429 24.2133 66.2695 22.4333 66.2695 19.98C66.2695 18.6067 66.3162 17.4 66.4095 16.36C66.5029 15.3067 66.7162 14.4867 67.0495 13.9C67.3962 13.3 67.9295 13 68.6495 13C69.1695 13 69.5629 13.1533 69.8295 13.46C70.1095 13.7667 70.3029 14.2 70.4095 14.76C70.5295 15.32 70.5962 15.9867 70.6095 16.76C70.6229 17.5333 70.6295 18.3867 70.6295 19.32L70.6895 19.28C71.3562 18.8267 72.0029 18.44 72.6295 18.12C73.2562 17.7867 73.8295 17.62 74.3495 17.62C74.7362 17.62 75.0562 17.7133 75.3095 17.9C75.5762 18.0733 75.7762 18.3 75.9095 18.58C76.0429 18.8467 76.1095 19.12 76.1095 19.4C76.1095 19.9067 75.9295 20.3667 75.5695 20.78C75.2095 21.1933 74.7429 21.6133 74.1695 22.04C74.3295 22.24 74.4829 22.46 74.6295 22.7C74.7895 22.9267 74.9562 23.18 75.1295 23.46C75.3562 23.8067 75.5429 24.1667 75.6895 24.54C75.8362 24.9133 75.9095 25.2533 75.9095 25.56C75.9095 25.92 75.8229 26.2067 75.6495 26.42C75.4762 26.62 75.2629 26.7667 75.0095 26.86C74.7562 26.94 74.5029 26.9733 74.2495 26.96C73.8629 26.9333 73.4762 26.7467 73.0895 26.4C72.7029 26.0533 72.3295 25.6467 71.9695 25.18C71.8095 24.98 71.6495 24.7733 71.4895 24.56C71.3429 24.3333 71.2029 24.1133 71.0695 23.9C70.8695 23.98 70.6762 24.0467 70.4895 24.1C70.3962 25.0867 70.2095 25.8133 69.9295 26.28C69.6629 26.7333 69.2362 26.96 68.6495 26.96ZM78.8439 17.3C78.1906 17.3 77.6372 17.0667 77.1839 16.6C76.7306 16.12 76.5039 15.54 76.5039 14.86C76.5039 14.4067 76.6039 14 76.8039 13.64C77.0172 13.28 77.2972 12.9933 77.6439 12.78C78.0039 12.5533 78.4039 12.44 78.8439 12.44C79.2706 12.44 79.6572 12.5533 80.0039 12.78C80.3639 12.9933 80.6506 13.28 80.8639 13.64C81.0772 14 81.1839 14.4067 81.1839 14.86C81.1839 15.3133 81.0772 15.7267 80.8639 16.1C80.6506 16.46 80.3639 16.7533 80.0039 16.98C79.6572 17.1933 79.2706 17.3 78.8439 17.3ZM78.8439 27C78.3106 27 77.9106 26.8467 77.6439 26.54C77.3906 26.2333 77.2172 25.7667 77.1239 25.14C77.0439 24.5 76.9972 23.68 76.9839 22.68C76.9839 21.68 77.0239 20.86 77.1039 20.22C77.1972 19.58 77.3772 19.1133 77.6439 18.82C77.9106 18.5133 78.3106 18.36 78.8439 18.36C79.3772 18.36 79.7706 18.5133 80.0239 18.82C80.2906 19.1133 80.4706 19.58 80.5639 20.22C80.6572 20.86 80.7039 21.68 80.7039 22.68C80.7172 23.68 80.6772 24.5 80.5839 25.14C80.4906 25.7667 80.3106 26.2333 80.0439 26.54C79.7772 26.8467 79.3772 27 78.8439 27ZM89.1875 26.96C88.5208 26.96 88.0142 26.74 87.6675 26.3C87.3208 25.86 87.0808 25.2067 86.9475 24.34C86.8275 23.46 86.7675 22.3733 86.7675 21.08C86.7675 20.6133 86.7742 20.1733 86.7875 19.76C86.8008 19.3467 86.8142 18.96 86.8275 18.6C85.2275 18.52 84.0542 18.2933 83.3075 17.92C82.5608 17.5467 82.1875 16.9 82.1875 15.98C82.1875 14.8333 82.7675 14.06 83.9275 13.66C85.1008 13.26 86.8608 13.06 89.2075 13.06C91.5675 13.06 93.3408 13.26 94.5275 13.66C95.7275 14.06 96.3275 14.8333 96.3275 15.98C96.3275 16.8867 95.9475 17.5333 95.1875 17.92C94.4408 18.2933 93.2742 18.52 91.6875 18.6C91.7142 18.96 91.7342 19.3467 91.7475 19.76C91.7608 20.1733 91.7675 20.6133 91.7675 21.08C91.7675 23.12 91.5875 24.6133 91.2275 25.56C90.8675 26.4933 90.1875 26.96 89.1875 26.96ZM98.1313 27C97.4779 27 96.8779 26.9 96.3313 26.7C95.7979 26.5 95.3713 26.2 95.0513 25.8C94.7313 25.3867 94.5713 24.8667 94.5713 24.24C94.5713 23.7067 94.7313 23.2533 95.0513 22.88C95.3713 22.5067 95.7979 22.22 96.3313 22.02C96.8779 21.82 97.4779 21.72 98.1313 21.72C98.5179 21.72 98.8713 21.7533 99.1913 21.82C99.5113 21.8733 99.7313 21.94 99.8513 22.02C99.8513 21.7133 99.7246 21.4467 99.4713 21.22C99.2179 20.98 98.7779 20.86 98.1513 20.86C97.8579 20.86 97.6246 20.8867 97.4513 20.94C97.2913 20.98 97.1446 21.0333 97.0113 21.1C96.8779 21.1667 96.7246 21.2267 96.5513 21.28C96.3913 21.32 96.1713 21.34 95.8913 21.34C95.4779 21.34 95.1446 21.2333 94.8913 21.02C94.6513 20.7933 94.5313 20.4533 94.5313 20C94.5313 19.5867 94.6446 19.2333 94.8713 18.94C95.1113 18.6333 95.4179 18.38 95.7913 18.18C96.1646 17.98 96.5646 17.8333 96.9913 17.74C97.4313 17.6467 97.8513 17.6 98.2513 17.6C99.4379 17.6 100.405 17.82 101.151 18.26C101.898 18.6867 102.451 19.2467 102.811 19.94C103.171 20.6333 103.351 21.3867 103.351 22.2C103.351 22.6533 103.311 23.0733 103.231 23.46C103.165 23.8467 103.071 24.1467 102.951 24.36C103.138 24.52 103.278 24.7067 103.371 24.92C103.478 25.1333 103.531 25.3533 103.531 25.58C103.531 25.9533 103.405 26.2867 103.151 26.58C102.911 26.86 102.565 27 102.111 27C101.765 27 101.491 26.9467 101.291 26.84C101.091 26.7333 100.891 26.5933 100.691 26.42C100.371 26.6067 100.018 26.7533 99.6313 26.86C99.2446 26.9533 98.7446 27 98.1313 27ZM98.5313 24.98C98.8379 24.98 99.0646 24.92 99.2113 24.8C99.3713 24.6667 99.4513 24.52 99.4513 24.36C99.4513 24.2 99.3713 24.06 99.2113 23.94C99.0646 23.8067 98.8379 23.74 98.5313 23.74C98.2379 23.74 98.0113 23.8067 97.8513 23.94C97.6913 24.06 97.6113 24.2 97.6113 24.36C97.6113 24.52 97.6913 24.6667 97.8513 24.8C98.0113 24.92 98.2379 24.98 98.5313 24.98ZM108.581 26.98C107.714 26.98 106.974 26.9333 106.361 26.84C105.747 26.7467 105.274 26.5467 104.941 26.24C104.621 25.92 104.461 25.4333 104.461 24.78C104.461 24.38 104.607 23.9933 104.901 23.62C105.207 23.2333 105.614 22.8467 106.121 22.46C106.627 22.06 107.194 21.64 107.821 21.2C107.047 21.2 106.387 21.18 105.841 21.14C105.294 21.0867 104.874 20.94 104.581 20.7C104.287 20.4467 104.141 20.0333 104.141 19.46C104.141 18.7533 104.514 18.2667 105.261 18C106.007 17.7333 107.061 17.6 108.421 17.6C109.341 17.6 110.127 17.6667 110.781 17.8C111.434 17.92 111.927 18.1533 112.261 18.5C112.607 18.8467 112.781 19.3467 112.781 20C112.781 20.5333 112.614 21.04 112.281 21.52C111.947 22 111.527 22.4333 111.021 22.82C110.514 23.1933 110.001 23.5133 109.481 23.78C110.107 23.78 110.661 23.8067 111.141 23.86C111.634 23.9133 112.014 24.0467 112.281 24.26C112.561 24.4733 112.701 24.8133 112.701 25.28C112.701 25.7733 112.534 26.14 112.201 26.38C111.867 26.62 111.394 26.78 110.781 26.86C110.167 26.94 109.434 26.98 108.581 26.98Z" fill="url(#paint0_angular_108_30)"/>
<path d="M28.6703 0.0590863C29.8631 0.121393 31.4296 0.308313 32.6758 0.530836C35.2481 0.993685 36.5655 1.87488 37.2152 3.56606C37.4467 4.17132 37.4556 5.8536 37.233 6.48557C37.0817 6.89501 37.0906 6.93061 37.2419 7.15314C37.598 7.66049 37.8739 8.41707 38.0163 9.21816C38.1409 9.93913 38.1498 10.1706 38.0519 10.7758C37.8828 11.9151 37.5891 12.7429 37.055 13.5974C36.8325 13.9446 36.6456 14.6477 36.5121 15.6268C36.3518 16.7395 36.2183 17.4782 36.1115 17.7186C36.067 17.8165 35.9691 18.0746 35.889 18.2971C35.6131 19.0715 35.0523 19.9616 34.2779 20.8606L34.0109 21.1721V22.6052C34.0109 23.8068 33.9842 24.1094 33.8418 24.4833C33.7439 24.7236 33.6193 24.9906 33.5481 25.0707C33.4857 25.1419 33.4323 25.2577 33.4323 25.3111C33.4323 25.3734 33.3967 25.4179 33.3522 25.4179C33.3077 25.4179 33.2454 25.4891 33.2187 25.5692C33.1297 25.8273 32.5511 26.4148 31.8747 26.931C31.0647 27.5541 30.4861 28.1594 30.2458 28.6489C30.0856 28.9693 30.05 29.1919 30.05 29.895C30.05 30.5982 30.0144 30.8029 29.8453 31.1234C29.7384 31.337 29.0175 32.147 28.2431 32.9303C26.8545 34.3366 26.3383 35.0309 26.187 35.6896C26.1069 36.0189 25.6173 36.7755 25.2524 37.1404C24.9942 37.3896 24.6204 37.6033 23.9261 37.9148C23.5968 38.0572 22.1459 38.0127 21.5941 37.8436C20.9265 37.63 20.2233 37.2917 19.6003 36.8645C19.0573 36.5084 18.1138 35.6006 17.7667 35.1199L17.5798 34.8529H17.829C17.9625 34.8529 18.2117 34.7728 18.3808 34.666L18.6746 34.4879L18.2918 34.2387C17.74 33.8916 17.2237 33.3397 16.93 32.7968C16.6007 32.2093 16.5116 31.3014 16.7342 30.8385C16.9033 30.4825 17.464 29.8683 17.6154 29.8683C17.6777 29.8683 17.829 29.8149 17.9625 29.7437C18.0871 29.6725 18.363 29.5924 18.5589 29.5568C18.7636 29.5212 18.9238 29.4767 18.9238 29.45C18.9238 29.4233 18.7903 29.272 18.6301 29.1118C18.4788 28.9515 18.2295 28.6934 18.0871 28.5332C17.829 28.2306 17.0457 26.7975 16.9211 26.397C16.8855 26.2724 16.6719 25.8006 16.4493 25.3378C15.5948 23.5932 14.4733 22.8544 12.2036 22.5251C11.9544 22.4895 11.714 22.4272 11.6695 22.3916C11.6161 22.3559 11.4381 22.2936 11.269 22.258C11.0999 22.2224 10.904 22.1601 10.8239 22.1156C10.7527 22.08 10.4234 21.9198 10.0941 21.7685C9.73802 21.5994 9.31078 21.3056 9.02595 21.0208L8.5542 20.558L7.37037 20.4066C5.50117 20.1574 4.49537 19.8726 3.25814 19.2228C2.83979 19.0003 2.37694 18.7155 2.21673 18.5819C2.06541 18.4484 1.86959 18.2793 1.77168 18.1992C0.908287 17.4604 0.231818 16.0452 0.231818 14.986C0.231818 14.6566 0.498846 13.3037 0.578954 13.1791C0.614558 13.1257 0.72137 12.8853 0.810379 12.645C0.943893 12.2623 1.54916 11.1408 1.76278 10.8648C1.80728 10.8114 1.9853 10.58 2.16332 10.3397C2.51936 9.85012 2.57277 9.87683 1.65597 10.1083C1.024 10.2685 0.25852 10.2596 0.0894025 10.0904C-0.0352107 9.96584 -0.0352107 9.92133 0.125006 9.6098C0.34753 9.18255 1.38004 8.17675 2.10101 7.705C2.20783 7.63379 2.35024 7.52698 2.40365 7.48247C2.83979 7.09973 4.93151 5.8536 6.32896 5.14152C11.1622 2.66706 17.4106 0.780063 22.5287 0.228204C24.6738 -0.00322028 26.6231 -0.0566259 28.6703 0.0590863ZM25.5105 1.87488C24.4602 1.94609 23.3565 2.044 23.0627 2.0974C22.769 2.14191 22.2706 2.22202 21.9501 2.26652C20.2233 2.52465 17.6599 3.10321 16.12 3.58386C15.0341 3.91319 11.901 4.98131 11.5805 5.12372C10.6815 5.52427 9.68462 5.92481 9.59561 5.92481C9.5422 5.92481 9.471 5.96931 9.43539 6.02272C9.36418 6.13843 9.5511 6.12063 10.7349 5.8892C12.2748 5.57767 14.7849 5.15043 16.9656 4.80329C17.8379 4.66977 20.0898 4.39385 21.8166 4.21583C23.1874 4.07341 26.8189 4.07341 27.1305 4.20693C27.7001 4.46505 27.3085 4.65197 25.8665 4.82109C21.1846 5.37295 19.2264 5.68448 15.5859 6.45886C14.0906 6.7793 10.4946 7.86521 9.5333 8.28356C9.38199 8.35477 9.06155 8.48828 8.82123 8.59509C7.6374 9.10244 5.99963 10.0014 5.31425 10.5266C4.13933 11.4167 3.56967 12.0487 2.97331 13.1079C2.68848 13.6063 2.67958 13.6508 2.67958 14.6566C2.67958 15.6535 2.68848 15.7158 2.97331 16.2588C3.14242 16.5703 3.40945 16.9887 3.57857 17.1845C3.8545 17.5138 3.8812 17.5227 3.8812 17.3358C3.8812 16.8641 4.33515 15.52 4.70009 14.8881C4.8336 14.6566 4.94932 14.4252 4.94932 14.3807C4.94932 14.3273 4.98492 14.2917 5.03833 14.2917C5.08283 14.2917 5.12733 14.2383 5.12733 14.1671C5.12733 14.0959 5.18074 13.9802 5.24305 13.9179C5.31425 13.8555 5.42107 13.7042 5.47447 13.5885C5.7148 13.1524 6.82742 11.9864 7.22796 11.7549C7.38817 11.6659 7.57509 11.6214 7.6641 11.657C7.79762 11.7015 7.81542 11.7905 7.77092 12.2267C7.73531 12.5115 7.6552 12.8675 7.57509 13.01C7.50389 13.1524 7.44158 13.3037 7.44158 13.3393C7.44158 13.3749 7.36147 13.5974 7.25466 13.8288C6.88082 14.6833 6.83632 14.7901 6.7206 15.1373C6.56039 15.6446 6.57819 16.8552 6.74731 17.1845C6.99653 17.6474 7.21906 17.7898 7.6196 17.7364C7.80652 17.7097 8.03794 17.6206 8.11805 17.5405C8.26047 17.407 8.88353 16.5614 9.22177 16.063C10.4412 14.2561 12.9157 12.378 15.3634 11.3989C15.6839 11.2743 16.0221 11.1319 16.12 11.0963C16.2179 11.0518 16.5561 10.936 16.8766 10.8381C18.5411 10.3397 19.9207 10.0459 21.5941 9.84122C22.0124 9.78782 22.6088 9.70771 22.9292 9.6632C23.2497 9.6098 23.9439 9.52969 24.4869 9.47628C28.8038 9.05794 30.8867 8.7197 31.8925 8.27466C32.0438 8.20345 32.2218 8.15004 32.293 8.15004C32.3553 8.15004 32.4888 8.09664 32.5867 8.02543C32.6847 7.96312 32.8627 7.87411 32.9873 7.83851C33.3344 7.7317 33.4412 7.58038 33.2454 7.45577C32.7648 7.15314 31.6789 7.01072 29.8275 7.00182C27.6734 6.99292 25.5461 7.23325 22.4842 7.82071C22.1192 7.89192 21.4784 8.01653 21.06 8.09664C20.6417 8.17675 20.1432 8.28356 19.9474 8.32806C19.7516 8.37257 19.2264 8.49718 18.7903 8.59509C18.3452 8.693 17.8468 8.81761 17.6777 8.86212C17.2237 8.98673 14.5534 9.6543 13.7167 9.84122C13.3251 9.93913 12.7554 10.0726 12.4439 10.1439C11.3135 10.4287 10.7705 10.5444 10.6014 10.5444C10.4323 10.5533 11.3224 10.0726 11.99 9.80562C12.1769 9.72551 12.4973 9.592 12.7109 9.49409C12.9246 9.39618 13.4497 9.17365 13.8948 8.99563C14.3309 8.81761 14.8205 8.61289 14.9807 8.54169C15.132 8.47048 15.31 8.41707 15.3812 8.41707C15.4524 8.41707 15.5414 8.38147 15.5859 8.33696C15.675 8.26576 17.8201 7.53588 19.2353 7.10863C21.5852 6.39656 24.0596 5.8892 26.4896 5.61327C27.1483 5.54207 27.7802 5.46196 27.896 5.43526C28.0117 5.40855 29.5693 5.38185 31.3673 5.39075C33.8062 5.39075 34.6874 5.35515 34.8565 5.27504C35.1413 5.13262 35.1947 4.64307 34.9811 4.21583C34.812 3.87759 34.002 3.07651 33.824 3.07651C33.7528 3.07651 33.6994 3.0409 33.6994 2.9964C33.6994 2.95189 33.5926 2.88959 33.4501 2.85398C33.3166 2.82728 33.0852 2.73827 32.9428 2.67596C32.5778 2.50685 31.9459 2.30212 31.5631 2.23982C31.394 2.20421 31.0914 2.14191 30.8956 2.0885C30.6997 2.044 29.8987 1.94609 29.1154 1.88378C28.3321 1.82147 27.6289 1.75917 27.5577 1.75027C27.4865 1.75027 26.5608 1.80367 25.5105 1.87488ZM32.9873 8.93333C32.2574 9.30717 30.8422 10.1439 29.6939 10.8915C27.8247 12.111 26.8901 12.7251 26.8456 12.7785C26.8189 12.8052 26.4184 13.0723 25.9555 13.3571C25.4927 13.6508 25.0922 13.909 25.0655 13.9357C25.0387 13.9624 24.9319 14.0336 24.8162 14.087C24.7094 14.1493 24.5314 14.2561 24.4157 14.3095C24.3089 14.3718 24.2021 14.443 24.1754 14.4697C24.0596 14.6032 20.7663 16.1609 20.348 16.2944C20.2233 16.33 20.0809 16.3923 20.0364 16.4279C19.9296 16.508 17.5174 17.318 16.6096 17.5761C16.2446 17.683 15.8174 17.8076 15.675 17.8521C15.2566 17.9767 13.9304 18.2793 13.512 18.3505C13.2984 18.3861 12.9869 18.4573 12.8178 18.5196L12.4973 18.6265L12.7732 18.7422C13.2539 18.938 15.8085 18.7422 17.1881 18.395C17.3839 18.3505 17.5531 18.3238 17.5709 18.3327C17.6065 18.3772 17.4017 18.5641 17.0902 18.7867C16.663 19.0804 15.9509 19.7836 15.7907 20.0595L15.6304 20.3176L16.5027 20.3799C18.0337 20.4868 20.4192 20.1752 21.2825 19.7658C21.5229 19.6501 21.4339 19.6323 20.161 19.6323C18.3541 19.6323 17.8201 19.472 18.2028 19.0626C18.4877 18.76 19.2442 18.4217 19.8673 18.306C20.161 18.2526 20.5082 18.1903 20.6595 18.1636C20.8019 18.1369 22.1637 18.0568 23.6858 17.9856C27.086 17.8343 28.4211 17.6741 29.2934 17.318C29.3913 17.2735 29.5871 17.2201 29.7384 17.1845C29.9966 17.1311 30.0055 17.1311 29.8097 17.2646C29.7028 17.3447 29.4269 17.5049 29.1866 17.6295C28.7237 17.8788 28.43 18.0479 28.3588 18.1191C28.3321 18.1458 28.1363 18.2526 27.9138 18.3683C27.6912 18.484 27.2907 18.6888 27.0237 18.8312C26.4807 19.116 25.3503 19.6323 25.2702 19.6323C25.2435 19.6323 25.1011 19.6857 24.9497 19.7569C24.7895 19.8281 24.3267 19.9883 23.9083 20.1129C23.49 20.2375 23.0271 20.3799 22.8847 20.4244C21.7187 20.7894 20.1165 21.0742 17.9002 21.3234C16.9656 21.4303 16.6452 21.5549 16.8054 21.7418C17.1169 22.1156 18.0337 22.3649 19.4579 22.4717C20.1877 22.5251 20.2767 22.5429 20.0809 22.6319C19.8762 22.7298 18.9416 23.0057 18.3452 23.157L18.0782 23.2193L18.3897 23.2905C18.995 23.433 21.1045 23.4775 22.3952 23.3796C24.745 23.1926 26.6231 22.7298 28.1897 21.9465C29.0709 21.5104 29.4981 21.1454 29.1332 21.1454C29.0798 21.1454 28.9196 21.092 28.786 21.0208C28.6614 20.9496 28.2698 20.8517 27.9227 20.7894C27.5755 20.736 27.2907 20.6737 27.2907 20.6559C27.2907 20.6381 27.6378 20.4511 28.0651 20.2286C28.5012 20.015 29.0442 19.7302 29.2934 19.5878C29.7295 19.3385 32.1862 17.6919 32.2752 17.585C32.3108 17.5405 32.7648 17.1756 33.37 16.6949C33.4679 16.6237 33.7617 16.3478 34.0198 16.0808C35.0167 15.075 34.3847 15.0127 32.4532 15.9206C32.0883 16.0897 31.7679 16.2143 31.7412 16.1876C31.7145 16.1609 31.759 16.1164 31.8302 16.0897C31.9014 16.063 32.2396 15.7514 32.5867 15.3954C33.2632 14.6922 33.3166 14.6299 33.5481 14.2739C33.6994 14.0336 33.6994 14.0336 33.4056 13.811C32.836 13.3838 32.3909 13.2147 31.7056 13.1613C31.0736 13.1168 30.1212 13.2325 29.7919 13.4016C29.7117 13.4372 29.4714 13.544 29.2489 13.633C29.0264 13.722 28.786 13.8466 28.7059 13.909C28.6347 13.9713 28.519 14.0247 28.4656 14.0247C28.2431 14.0247 28.3766 14.1849 28.9374 14.5854C29.8275 15.2263 29.783 15.2619 28.0206 15.2085C27.1127 15.1818 26.365 15.1996 26.0891 15.253C25.8398 15.3064 25.5194 15.3776 25.377 15.4132C25.0209 15.4933 25.1545 15.3598 25.7775 15.0216C26.3383 14.7189 27.5221 13.9891 28.3143 13.4639C28.8573 13.099 30.5929 11.8083 30.673 11.7104C30.6997 11.6837 30.8778 11.5413 31.0647 11.39C31.8035 10.847 33.6549 9.11135 33.7973 8.83542C33.9308 8.59509 33.5659 8.6396 32.9873 8.93333ZM35.2659 9.32497C34.8654 9.73441 34.3847 10.1439 33.6193 10.7135L32.9517 11.2031L33.5302 11.4167C34.1444 11.6392 34.2067 11.6659 34.6963 11.9685L35.0345 12.1644L35.2481 11.6926C35.622 10.8648 35.7466 10.3842 35.7466 9.76111C35.7466 8.94223 35.6932 8.89772 35.2659 9.32497ZM28.8929 9.93023C25.911 10.2685 23.3209 10.7135 21.5229 11.1853C21.149 11.2921 20.6061 11.4256 20.3301 11.4968C19.6982 11.6481 17.7667 12.289 17.2326 12.5204C17.0101 12.6183 16.752 12.734 16.6541 12.7785C14.3309 13.7843 12.8267 14.8169 11.6695 16.1787C11.3224 16.5881 10.7616 17.6384 10.8506 17.7275C10.9218 17.8076 12.3549 17.6474 13.1382 17.4693C14.776 17.0955 16.5205 16.2321 17.7845 15.164C18.185 14.8258 20.1432 13.4906 20.2411 13.4906C20.2945 13.4906 20.348 13.4639 20.3658 13.4194C20.3747 13.3838 20.5349 13.2859 20.704 13.2058C20.8731 13.1168 21.1757 12.9566 21.3716 12.8497C21.7098 12.6539 22.2528 12.4047 23.1963 11.9953C23.5612 11.835 24.6204 11.4523 25.555 11.1319C25.7508 11.0696 26.2137 10.9271 26.5786 10.8203C26.9435 10.7135 27.3441 10.5978 27.4687 10.5533C27.5933 10.5088 28.0473 10.3931 28.4923 10.2863C29.1955 10.1172 29.8186 9.96584 30.0945 9.88573C30.2992 9.82342 29.596 9.85012 28.8929 9.93023ZM33.3522 17.7542C32.7114 18.3772 31.7501 18.938 30.8155 19.2317C30.584 19.3029 30.7086 19.4008 31.2338 19.5789C32.0527 19.8548 32.6758 19.7035 33.1564 19.1249C33.4501 18.7689 33.8418 17.496 33.6549 17.496C33.6371 17.496 33.4946 17.6117 33.3522 17.7542ZM12.3104 19.9883C11.3936 19.9883 11.3936 19.9883 12.3727 20.5135C12.6753 20.6826 12.9869 20.7894 13.1293 20.7716C13.3429 20.7449 13.3607 20.7093 13.3874 20.3087C13.4141 19.9349 13.3963 19.8815 13.2717 19.9349C13.1916 19.9616 12.7554 19.9883 12.3104 19.9883ZM30.0767 22.4005C29.5604 22.5251 26.997 23.344 26.6231 23.5042C26.1514 23.7089 24.7717 24.1628 24.3089 24.2608C23.1874 24.5011 22.7957 24.5456 21.5496 24.5545C20.8108 24.5634 19.6804 24.5367 19.0306 24.4922C18.0515 24.4299 17.8557 24.4299 17.8557 24.5367C17.8646 24.8927 18.6479 25.3823 19.7694 25.7383C20.2144 25.8807 20.5883 25.9074 22.0391 25.9074C23.2675 25.9074 23.8727 25.8718 24.113 25.7828C24.3623 25.7027 25.0833 25.6582 26.7833 25.6493C29.3735 25.6315 29.8008 25.5692 30.7621 25.0084C31.6165 24.51 32.0527 23.8068 31.8391 23.2549C31.7145 22.9345 31.5186 22.9434 30.8511 23.3262C30.5484 23.4953 30.2814 23.6377 30.2547 23.6377C30.2369 23.6377 29.9254 23.7712 29.5782 23.9403C28.4923 24.4477 28.2876 24.5278 28.163 24.5278C28.0918 24.5278 28.0028 24.5634 27.9494 24.6079C27.9049 24.6435 27.7446 24.7058 27.6022 24.7414C27.4509 24.7681 27.7179 24.599 28.1808 24.3587C29.6405 23.6199 30.8867 22.8277 30.9846 22.5874C31.1003 22.2936 30.8066 22.2313 30.0767 22.4005ZM27.5577 26.7975C27.1394 26.8687 26.4985 26.9844 26.1336 27.0556C24.1754 27.4651 22.8491 27.5897 21.1579 27.5185L19.6804 27.4562L19.894 27.6787C20.0186 27.8033 20.4014 27.9902 20.8642 28.1416C21.603 28.3819 21.7187 28.3997 23.2853 28.3997C24.923 28.3997 25.0833 28.3819 26.9346 27.9813C27.8514 27.7855 29.1243 27.385 29.5782 27.1536C29.8542 27.0111 29.9432 26.8509 29.8097 26.7263C29.7117 26.6195 28.3588 26.6729 27.5577 26.7975ZM29.0442 28.106C28.8662 28.195 28.8306 28.7557 28.9997 28.8536C29.1154 28.9337 29.783 28.2306 29.783 28.0258C29.783 27.9279 29.7117 27.9101 29.4892 27.9546C29.3379 27.9902 29.1332 28.0526 29.0442 28.106ZM24.3267 28.7201C23.9706 28.7735 23.6057 28.8625 23.5078 28.9159C23.3565 28.9961 23.3921 29.0228 23.8193 29.1207C24.3445 29.2453 25.9822 29.272 26.2582 29.1652C26.4095 29.1118 26.4006 29.0851 26.1692 28.9337C25.6974 28.6222 25.2702 28.5777 24.3267 28.7201ZM19.9919 29.0584C19.9919 29.3343 21.4873 30.0019 22.6177 30.2333C23.2764 30.3668 24.2288 30.438 24.4157 30.3668C24.5403 30.3134 24.5403 30.2867 24.389 30.1265C24.0507 29.7526 22.6533 29.2364 21.4161 29.0406C20.9621 28.9694 19.9919 28.9783 19.9919 29.0584ZM25.11 30.4914C24.8162 30.5359 24.3356 30.6338 24.0418 30.6961L23.5078 30.8118L24.1754 31.248C24.5403 31.4883 25.0565 31.8978 25.3147 32.1559C25.5728 32.414 25.8398 32.6276 25.911 32.6276C26.1603 32.6276 26.6765 32.2449 26.9792 31.8177C27.2373 31.4794 27.2996 31.3192 27.2729 31.0611C27.2195 30.4647 26.4807 30.2689 25.11 30.4914ZM20.0008 31.2569C19.8495 31.2925 19.7249 31.3459 19.7249 31.3904C19.7249 31.4794 20.4637 31.8355 20.971 31.9868C21.6386 32.2004 22.6444 32.3606 23.2586 32.3606C23.9083 32.3606 24.0329 32.2894 23.7926 32.058C23.3387 31.5951 20.882 31.0789 20.0008 31.2569ZM19.716 32.1915C20.4103 32.6098 21.8433 32.957 21.9857 32.7344C22.0925 32.5564 20.4637 32.0402 19.7249 32.0135L19.4134 32.0046L19.716 32.1915ZM19.805 33.402C19.4401 33.767 22.5287 34.2654 23.3209 33.9628C23.6502 33.8382 23.5256 33.669 22.9915 33.491C22.3329 33.2774 22.2082 33.2685 20.9977 33.2774C20.3034 33.2863 19.8762 33.3308 19.805 33.402ZM20.8909 35.3513C21.336 35.8409 21.8611 36.099 22.4041 36.099C22.8402 36.099 22.9648 36.0545 23.2942 35.8053C23.9083 35.3424 23.8638 35.2979 22.8224 35.289C22.3151 35.2801 21.6831 35.2534 21.4161 35.2089C21.149 35.1733 20.8731 35.1377 20.8019 35.1288C20.7129 35.1199 20.7485 35.2 20.8909 35.3513Z" fill="url(#paint1_linear_108_30)"/>
<path d="M30.317 16.9975C30.317 17.0153 30.2547 17.0598 30.1746 17.0865C30.1034 17.1132 30.0678 17.1043 30.0945 17.0509C30.1479 16.9619 30.317 16.9263 30.317 16.9975Z" fill="url(#paint2_linear_108_30)"/>
<path d="M27.2907 24.8305C27.2907 24.8483 27.2284 24.8928 27.1483 24.9195C27.0771 24.9462 27.0415 24.9373 27.0682 24.8839C27.1216 24.7949 27.2907 24.7593 27.2907 24.8305Z" fill="url(#paint3_linear_108_30)"/>
<defs>
<radialGradient id="paint0_angular_108_30" cx="0" cy="0" r="1" gradientUnits="userSpaceOnUse" gradientTransform="translate(77 18) rotate(93.1798) scale(27.0416 81.6246)">
<stop stop-color="#FF0066"/>
<stop offset="1" stop-color="#1A15FF"/>
</radialGradient>
<linearGradient id="paint1_linear_108_30" x1="19.0592" y1="38" x2="19.0592" y2="6.10352e-05" gradientUnits="userSpaceOnUse">
<stop stop-color="#1A15FF"/>
<stop offset="1" stop-color="#FF0066"/>
</linearGradient>
<linearGradient id="paint2_linear_108_30" x1="30.2013" y1="17.1011" x2="30.2013" y2="16.9596" gradientUnits="userSpaceOnUse">
<stop stop-color="#1A15FF"/>
<stop offset="1" stop-color="#FF0066"/>
</linearGradient>
<linearGradient id="paint3_linear_108_30" x1="27.175" y1="24.9341" x2="27.175" y2="24.7926" gradientUnits="userSpaceOnUse">
<stop stop-color="#1A15FF"/>
<stop offset="1" stop-color="#FF0066"/>
</linearGradient>
</defs>
</svg>
